<?xml version="1.0" encoding="UTF-8" standalone="no"?>
<svg
   xmlns:dc="http://purl.org/dc/elements/1.1/"
   xmlns:cc="http://creativecommons.org/ns#"
   xmlns:rdf="http://www.w3.org/1999/02/22-rdf-syntax-ns#"
   xmlns:svg="http://www.w3.org/2000/svg"
   xmlns="http://www.w3.org/2000/svg"
   xmlns:sodipodi="http://sodipodi.sourceforge.net/DTD/sodipodi-0.dtd"
   xmlns:inkscape="http://www.inkscape.org/namespaces/inkscape"
   width="420.90726"
   height="420.87805"
   viewBox="0 0 336.72581 336.70244"
   version="1.1"
   id="svg2"
   inkscape:version="0.48.4 r9939"
   sodipodi:docname="date.svg">
  <metadata
     id="metadata20">
    <rdf:RDF>
      <cc:Work
         rdf:about="">
        <dc:format>image/svg+xml</dc:format>
        <dc:type
           rdf:resource="http://purl.org/dc/dcmitype/StillImage" />
      </cc:Work>
    </rdf:RDF>
  </metadata>
  <defs
     id="defs18" />
  <sodipodi:namedview
     pagecolor="#ffffff"
     bordercolor="#666666"
     borderopacity="1"
     objecttolerance="10"
     gridtolerance="10"
     guidetolerance="10"
     inkscape:pageopacity="0"
     inkscape:pageshadow="2"
     inkscape:window-width="1366"
     inkscape:window-height="705"
     id="namedview16"
     showgrid="false"
     fit-margin-top="5"
     fit-margin-right="5"
     fit-margin-bottom="5"
     fit-margin-left="5"
     inkscape:zoom="0.55204678"
     inkscape:cx="-122.78081"
     inkscape:cy="173.09264"
     inkscape:window-x="-8"
     inkscape:window-y="-8"
     inkscape:window-maximized="1"
     inkscape:current-layer="#ff9900ff" />
  <g
     id="#ffffffff"
     transform="translate(-3.2300089,-3.2986588)" />
  <g
     id="#ff9900ff"
     transform="translate(-3.2300089,-3.2986588)">
    <path
       d="m 167.24,7.35 c 29.36,-0.73 59.01,6.33 84.59,20.84 21.35,11.99 40.04,28.74 54.09,48.8 30.62,42.56 38.48,100.32 20.57,149.58 -14.5,41.99 -47.19,77.22 -87.79,95.16 -47.27,21.5 -104.83,18.58 -149.54,-7.9 C 46.81,289.56 16.32,245.45 9.26,197.07 2.5,155.28 12.79,110.89 37.64,76.57 63.35,40.01 104.61,14.63 149.02,8.93 155.04,7.88 161.15,7.62 167.24,7.35 m -1,5.03 c -17.11,0.53 -34.13,3.91 -50.17,9.88 -44.63,16.4 -80.92,53.87 -95.69,99.09 -9.76,29.02 -10.81,60.91 -3,90.52 11.76,46.52 46.06,86.59 90.04,105.68 26.24,11.63 55.71,15.93 84.17,12.22 42.14,-5.03 81.76,-28.02 107.11,-62.02 26.05,-33.83 37.18,-78.6 30.34,-120.72 C 322.27,101.26 294.02,59.33 254.39,35.54 228.19,19.27 197.01,11.31 166.24,12.38 z"
       id="path6"
       style="fill:#d9105a;fill-opacity:1"
       inkscape:connector-curvature="0" />
    <g
       id="g3770">
      <g
         style="fill:#d9105a;fill-opacity:1"
         transform="translate(0.64251593,1.1527322)"
         id="g2997">
        <path
           style="fill:#d9105a;fill-opacity:1"
           inkscape:connector-curvature="0"
           d="m 138.35,87.56 c 5.37,-1.93 11.8,2.54 11.51,8.33 0.02,10.05 0.02,20.1 -0.01,30.15 0.18,4.72 -4.2,8.95 -8.89,8.75 -4.64,0.12 -8.92,-4.08 -8.77,-8.74 -0.03,-10.03 -0.02,-20.06 0,-30.09 -0.14,-3.77 2.54,-7.38 6.16,-8.4 z"
           id="path8" />
        <path
           style="fill:#d9105a;fill-opacity:1"
           inkscape:connector-curvature="0"
           d="m 197.34,87.64 c 5.43,-2.08 11.85,2.41 11.73,8.23 0.16,9.72 0.04,19.45 0.06,29.17 0.32,4.71 -3.3,9.42 -8.13,9.71 -4.95,0.62 -9.78,-3.73 -9.66,-8.72 -0.06,-10.03 -0.05,-20.06 0,-30.09 -0.08,-3.68 2.48,-7.22 6,-8.3 z"
           id="path10" />
        <path
           style="fill:#d9105a;fill-opacity:1"
           inkscape:connector-curvature="0"
           d="m 102.19,107.9 c 8.56,-0.01 17.12,-0.01 25.68,-0.01 0.12,6.73 -0.09,13.47 0.07,20.2 0.12,5.64 6.05,8.98 11.08,9.47 5.68,0.63 12.96,-1.82 14.56,-7.9 0.41,-7.24 0.02,-14.51 0.17,-21.76 11.48,-0.01 22.96,-0.01 34.44,0 0.05,6.73 -0.05,13.46 0.02,20.19 -0.22,4.49 3.69,8.06 7.8,9.05 6.38,2.02 15.81,-1.36 15.78,-9.05 0.07,-6.73 -0.03,-13.46 0.02,-20.19 9.3,-0.01 18.61,0 27.91,-0.01 0.04,30.9 0.01,61.8 0.01,92.7 -17.22,17.79 -34.42,35.6 -51.73,53.3 -28.61,-0.09 -57.23,-0.01 -85.84,-0.05 0.04,-48.64 -0.03,-97.29 0.03,-145.94 m 6.39,38.68 c 0.02,33.61 0.02,67.23 0,100.84 26.52,-0.02 53.05,0.06 79.58,-0.04 0.05,-15.71 0.05,-31.42 0,-47.13 15.05,-0.05 30.1,0.01 45.14,-0.03 0.09,-17.88 0,-35.76 0.05,-53.64 -41.59,0 -83.18,0 -124.77,0 m 86.03,60.09 c 0.03,10.13 0,20.26 0.02,30.39 10.03,-10.18 20.08,-20.35 30.24,-30.39 -10.09,-0.01 -20.17,0 -30.26,0 z"
           id="path12" />
      </g>
      <path
         style="fill:#d9105a;fill-opacity:1"
         id="path14"
         d="m 148.95,174.92 c 6.61,-3.92 12.77,-8.55 18.79,-13.31 3.95,-0.04 7.9,-0.01 11.86,-0.02 -0.04,22.9 -0.02,45.8 -0.01,68.69 -4.31,0 -8.63,0 -12.94,0 0.02,-17.79 -0.01,-35.59 0.02,-53.38 -3.91,2.82 -8.1,5.21 -12.39,7.41 -1.75,-3.15 -3.52,-6.28 -5.33,-9.39 z"
         inkscape:connector-curvature="0" />
    </g>
  </g>
</svg>
