<?xml version="1.0" encoding="UTF-8" standalone="no"?>
<svg
   xmlns:dc="http://purl.org/dc/elements/1.1/"
   xmlns:cc="http://creativecommons.org/ns#"
   xmlns:rdf="http://www.w3.org/1999/02/22-rdf-syntax-ns#"
   xmlns:svg="http://www.w3.org/2000/svg"
   xmlns="http://www.w3.org/2000/svg"
   xmlns:sodipodi="http://sodipodi.sourceforge.net/DTD/sodipodi-0.dtd"
   xmlns:inkscape="http://www.inkscape.org/namespaces/inkscape"
   width="511.98389"
   height="511.98389"
   viewBox="0 0 409.58711 409.58711"
   version="1.1"
   id="svg2"
   inkscape:version="0.48.4 r9939"
   sodipodi:docname="date.svg">
  <metadata
     id="metadata20">
    <rdf:RDF>
      <cc:Work
         rdf:about="">
        <dc:format>image/svg+xml</dc:format>
        <dc:type
           rdf:resource="http://purl.org/dc/dcmitype/StillImage" />
      </cc:Work>
    </rdf:RDF>
  </metadata>
  <defs
     id="defs18" />
  <sodipodi:namedview
     pagecolor="#ffffff"
     bordercolor="#666666"
     borderopacity="1"
     objecttolerance="10"
     gridtolerance="10"
     guidetolerance="10"
     inkscape:pageopacity="0"
     inkscape:pageshadow="2"
     inkscape:window-width="1366"
     inkscape:window-height="705"
     id="namedview16"
     showgrid="false"
     fit-margin-top="5"
     fit-margin-right="5"
     fit-margin-bottom="5"
     fit-margin-left="5"
     inkscape:zoom="0.78071204"
     inkscape:cx="-23.058307"
     inkscape:cy="238.0278"
     inkscape:window-x="-8"
     inkscape:window-y="-8"
     inkscape:window-maximized="1"
     inkscape:current-layer="svg2" />
  <g
     id="#ffffffff"
     transform="translate(-357.80935,29.995848)" />
  <g
     id="icon"
     transform="translate(-357.80935,29.995848)">
    <g
       id="calendar"
       transform="matrix(1.1824629,0,0,1.1824629,359.70065,-28.171907)">
      <g
         style="fill:#d9105a;fill-opacity:1"
         transform="translate(0.64251593,1.1527322)"
         id="g2997">
        <path
           style="fill:#d9105a;fill-opacity:1"
           inkscape:connector-curvature="0"
           d="m 138.35,87.56 c 5.37,-1.93 11.8,2.54 11.51,8.33 0.02,10.05 0.02,20.1 -0.01,30.15 0.18,4.72 -4.2,8.95 -8.89,8.75 -4.64,0.12 -8.92,-4.08 -8.77,-8.74 -0.03,-10.03 -0.02,-20.06 0,-30.09 -0.14,-3.77 2.54,-7.38 6.16,-8.4 z"
           id="path8" />
        <path
           style="fill:#d9105a;fill-opacity:1"
           inkscape:connector-curvature="0"
           d="m 197.34,87.64 c 5.43,-2.08 11.85,2.41 11.73,8.23 0.16,9.72 0.04,19.45 0.06,29.17 0.32,4.71 -3.3,9.42 -8.13,9.71 -4.95,0.62 -9.78,-3.73 -9.66,-8.72 -0.06,-10.03 -0.05,-20.06 0,-30.09 -0.08,-3.68 2.48,-7.22 6,-8.3 z"
           id="path10" />
        <path
           style="fill:#d9105a;fill-opacity:1"
           inkscape:connector-curvature="0"
           d="m 102.19,107.9 c 8.56,-0.01 17.12,-0.01 25.68,-0.01 0.12,6.73 -0.09,13.47 0.07,20.2 0.12,5.64 6.05,8.98 11.08,9.47 5.68,0.63 12.96,-1.82 14.56,-7.9 0.41,-7.24 0.02,-14.51 0.17,-21.76 11.48,-0.01 22.96,-0.01 34.44,0 0.05,6.73 -0.05,13.46 0.02,20.19 -0.22,4.49 3.69,8.06 7.8,9.05 6.38,2.02 15.81,-1.36 15.78,-9.05 0.07,-6.73 -0.03,-13.46 0.02,-20.19 9.3,-0.01 18.61,0 27.91,-0.01 0.04,30.9 0.01,61.8 0.01,92.7 -17.22,17.79 -34.42,35.6 -51.73,53.3 -28.61,-0.09 -57.23,-0.01 -85.84,-0.05 0.04,-48.64 -0.03,-97.29 0.03,-145.94 m 6.39,38.68 c 0.02,33.61 0.02,67.23 0,100.84 26.52,-0.02 53.05,0.06 79.58,-0.04 0.05,-15.71 0.05,-31.42 0,-47.13 15.05,-0.05 30.1,0.01 45.14,-0.03 0.09,-17.88 0,-35.76 0.05,-53.64 -41.59,0 -83.18,0 -124.77,0 m 86.03,60.09 c 0.03,10.13 0,20.26 0.02,30.39 10.03,-10.18 20.08,-20.35 30.24,-30.39 -10.09,-0.01 -20.17,0 -30.26,0 z"
           id="path12" />
      </g>
      <path
         style="fill:#d9105a;fill-opacity:1"
         id="path14"
         d="m 148.95,174.92 c 6.61,-3.92 12.77,-8.55 18.79,-13.31 3.95,-0.04 7.9,-0.01 11.86,-0.02 -0.04,22.9 -0.02,45.8 -0.01,68.69 -4.31,0 -8.63,0 -12.94,0 0.02,-17.79 -0.01,-35.59 0.02,-53.38 -3.91,2.82 -8.1,5.21 -12.39,7.41 -1.75,-3.15 -3.52,-6.28 -5.33,-9.39 z"
         inkscape:connector-curvature="0" />
    </g>
    <g
       id="circle"
       transform="translate(357.01042,-26.772274)">
      <path
         sodipodi:type="arc"
         style="fill:none;stroke:#d9105a;stroke-width:6.97751951;stroke-miterlimit:4;stroke-opacity:1;stroke-dasharray:none;stroke-dashoffset:0"
         id="path3001"
         sodipodi:cx="108.06973"
         sodipodi:cy="249.31226"
         sodipodi:rx="246.69713"
         sodipodi:ry="246.69713"
         d="m 354.76686,249.31226 a 246.69713,246.69713 0 1 1 -493.39426,0 246.69713,246.69713 0 1 1 493.39426,0 z"
         transform="matrix(0.80257747,0,0,-0.80257747,118.85815,401.66238)" />
    </g>
  </g>
</svg>
