<?xml version="1.0" encoding="UTF-8" standalone="no"?>
<svg
   xmlns:dc="http://purl.org/dc/elements/1.1/"
   xmlns:cc="http://creativecommons.org/ns#"
   xmlns:rdf="http://www.w3.org/1999/02/22-rdf-syntax-ns#"
   xmlns:svg="http://www.w3.org/2000/svg"
   xmlns="http://www.w3.org/2000/svg"
   xmlns:sodipodi="http://sodipodi.sourceforge.net/DTD/sodipodi-0.dtd"
   xmlns:inkscape="http://www.inkscape.org/namespaces/inkscape"
   width="420.90726"
   height="420.87805"
   viewBox="0 0 336.72581 336.70244"
   version="1.1"
   id="svg2"
   inkscape:version="0.48.4 r9939"
   sodipodi:docname="place.svg">
  <metadata
     id="metadata20">
    <rdf:RDF>
      <cc:Work
         rdf:about="">
        <dc:format>image/svg+xml</dc:format>
        <dc:type
           rdf:resource="http://purl.org/dc/dcmitype/StillImage" />
      </cc:Work>
    </rdf:RDF>
  </metadata>
  <defs
     id="defs18" />
  <sodipodi:namedview
     pagecolor="#ffffff"
     bordercolor="#666666"
     borderopacity="1"
     objecttolerance="10"
     gridtolerance="10"
     guidetolerance="10"
     inkscape:pageopacity="0"
     inkscape:pageshadow="2"
     inkscape:window-width="1366"
     inkscape:window-height="705"
     id="namedview16"
     showgrid="false"
     fit-margin-top="5"
     fit-margin-right="5"
     fit-margin-bottom="5"
     fit-margin-left="5"
     inkscape:zoom="0.78071204"
     inkscape:cx="203.73562"
     inkscape:cy="190.15156"
     inkscape:window-x="-8"
     inkscape:window-y="-8"
     inkscape:window-maximized="1"
     inkscape:current-layer="#ff9900ff" />
  <g
     id="#ffffffff"
     transform="translate(-3.2300089,-3.2986588)" />
  <g
     id="#ff9900ff"
     transform="translate(-3.2300089,-3.2986588)">
    <path
       d="m 167.24,7.35 c 29.36,-0.73 59.01,6.33 84.59,20.84 21.35,11.99 40.04,28.74 54.09,48.8 30.62,42.56 38.48,100.32 20.57,149.58 -14.5,41.99 -47.19,77.22 -87.79,95.16 -47.27,21.5 -104.83,18.58 -149.54,-7.9 C 46.81,289.56 16.32,245.45 9.26,197.07 2.5,155.28 12.79,110.89 37.64,76.57 63.35,40.01 104.61,14.63 149.02,8.93 155.04,7.88 161.15,7.62 167.24,7.35 m -1,5.03 c -17.11,0.53 -34.13,3.91 -50.17,9.88 -44.63,16.4 -80.92,53.87 -95.69,99.09 -9.76,29.02 -10.81,60.91 -3,90.52 11.76,46.52 46.06,86.59 90.04,105.68 26.24,11.63 55.71,15.93 84.17,12.22 42.14,-5.03 81.76,-28.02 107.11,-62.02 26.05,-33.83 37.18,-78.6 30.34,-120.72 C 322.27,101.26 294.02,59.33 254.39,35.54 228.19,19.27 197.01,11.31 166.24,12.38 z"
       id="path6"
       style="fill:#d9105a;fill-opacity:1"
       inkscape:connector-curvature="0" />
    <path
       style="fill:#d9105a;fill-opacity:1"
       inkscape:connector-curvature="0"
       d="m 170.74322,88.257076 1.69966,0 c 9.75996,0.18304 19.46763,3.09534 27.64234,8.452535 9.19124,5.981499 16.45401,14.901439 20.35015,25.158229 2.18341,5.68079 3.3078,11.74399 3.45489,17.82354 l 0,1.72581 c -0.2092,12.87165 -5.32452,25.60275 -14.21177,34.93781 -8.24988,8.34793 -15.45709,17.70587 -21.61182,27.69463 -8.1028,13.26716 -14.32617,27.99209 -16.05525,43.54723 -0.32031,2.47105 -0.25167,4.97805 -0.61122,7.44582 0.10786,-1.32704 0.12421,-2.66062 0.003,-3.98439 -0.63737,-10.08355 -3.31106,-19.95793 -7.19086,-29.25702 -4.51391,-10.75362 -10.57058,-20.81102 -17.55879,-30.12973 -3.95498,-5.2526 -8.20413,-10.29602 -12.83243,-14.97008 -9.0082,-9.28929 -14.24446,-22.04 -14.52555,-34.96395 l 0,-2.06247 c 0.14055,-6.60906 1.48067,-13.20178 4.04323,-19.29767 4.0661,-9.78612 11.22429,-18.23211 20.15077,-23.925969 8.09299,-5.197045 17.64704,-8.014555 27.25338,-8.194325 m -2.20956,31.643084 c -4.71328,0.67333 -9.15855,3.03323 -12.36175,6.55676 -3.27511,3.54967 -5.2428,8.26623 -5.45525,13.09064 -0.33993,5.58273 1.75195,11.2439 5.57619,15.31328 3.28818,3.54314 7.84458,5.89325 12.64939,6.47505 4.54331,0.5818 9.26968,-0.37262 13.21811,-2.69985 4.17398,-2.43181 7.45563,-6.35411 9.09318,-10.89742 1.85655,-5.06303 1.64409,-10.84841 -0.58834,-15.75781 -1.96768,-4.38315 -5.50101,-8.03742 -9.81226,-10.15546 -3.78502,-1.8827 -8.14203,-2.54949 -12.31927,-1.92519 z"
       id="path5" />
  </g>
</svg>
