<?xml version="1.0" encoding="UTF-8" standalone="no"?>
<svg
   xmlns:dc="http://purl.org/dc/elements/1.1/"
   xmlns:cc="http://creativecommons.org/ns#"
   xmlns:rdf="http://www.w3.org/1999/02/22-rdf-syntax-ns#"
   xmlns:svg="http://www.w3.org/2000/svg"
   xmlns="http://www.w3.org/2000/svg"
   xmlns:sodipodi="http://sodipodi.sourceforge.net/DTD/sodipodi-0.dtd"
   xmlns:inkscape="http://www.inkscape.org/namespaces/inkscape"
   width="511.98389"
   height="511.98389"
   viewBox="0 0 409.58711 409.58711"
   version="1.1"
   id="svg2"
   inkscape:version="0.48.4 r9939"
   sodipodi:docname="target.svg">
  <metadata
     id="metadata20">
    <rdf:RDF>
      <cc:Work
         rdf:about="">
        <dc:format>image/svg+xml</dc:format>
        <dc:type
           rdf:resource="http://purl.org/dc/dcmitype/StillImage" />
      </cc:Work>
    </rdf:RDF>
  </metadata>
  <defs
     id="defs18" />
  <sodipodi:namedview
     pagecolor="#ffffff"
     bordercolor="#666666"
     borderopacity="1"
     objecttolerance="10"
     gridtolerance="10"
     guidetolerance="10"
     inkscape:pageopacity="0"
     inkscape:pageshadow="2"
     inkscape:window-width="1366"
     inkscape:window-height="705"
     id="namedview16"
     showgrid="false"
     fit-margin-top="5"
     fit-margin-right="5"
     fit-margin-bottom="5"
     fit-margin-left="5"
     inkscape:zoom="0.75853273"
     inkscape:cx="-36.48863"
     inkscape:cy="279.525"
     inkscape:window-x="-8"
     inkscape:window-y="-8"
     inkscape:window-maximized="1"
     inkscape:current-layer="svg2" />
  <g
     id="#ffffffff"
     transform="translate(-187.2837,-1.5169896)" />
  <g
     id="icon"
     transform="translate(-187.2837,-1.5169896)">
    <g
       id="women"
       transform="translate(15.838867,0.85883185)"
       style="fill:#d9105a;fill-opacity:1">
      <g
         id="g3008"
         transform="matrix(1.2245792,0,0,1.2245792,-95.548247,-39.963791)"
         women="">
        <g
           style="fill:#d9105a;fill-opacity:1"
           id="woman1"
           transform="matrix(0.71979704,0,0,0.71979704,205.00883,78.540721)">
          <path
             id="path8"
             d="m 126.41,86.5 c 7.69,-2.35 16.46,3.52 17.22,11.53 1.18,7.55 -5.05,15.13 -12.67,15.5 -7.2,0.71 -14.2,-5.21 -14.72,-12.41 -0.79,-6.5 3.77,-13.12 10.17,-14.62 z"
             inkscape:connector-curvature="0"
             style="fill:#d9105a;fill-opacity:1" />
          <path
             id="path12"
             d="m 103.23,130.15 c 2.09,-7.24 9.02,-13.11 16.71,-13.03 5.02,-0.09 10.04,0.03 15.06,-0.04 3.58,0.05 7.35,-0.28 10.71,1.23 5.43,2.31 9.61,7.26 11.14,12.95 3.79,12.64 7.71,25.24 11.49,37.89 1.2,3.19 -0.28,7.32 -3.72,8.29 -3.02,1.04 -6.29,-1.09 -7.09,-4.06 -3.87,-12.18 -7.13,-24.58 -11.14,-36.71 -0.77,-0.04 -2.3,-0.14 -3.07,-0.18 6.36,21.58 12.52,43.23 18.9,64.81 -5.84,0 -11.68,0 -17.52,-0.01 -0.04,15.91 0.05,31.82 -0.04,47.72 0.17,2.05 -1.16,3.65 -2.44,5.06 -2.66,-0.09 -5.33,0.07 -7.97,-0.2 -1.95,-1.22 -2.61,-3.63 -2.51,-5.81 -0.01,-15.72 0.03,-31.44 -0.01,-47.15 -1.29,-0.01 -2.57,-0.01 -3.85,0 -0.04,16.04 0.05,32.09 -0.04,48.14 0.02,2.15 -1.23,5.13 -3.78,4.94 -2.73,-0.24 -6.68,1.19 -8.25,-1.82 -1.1,-1.84 -0.9,-4.08 -0.96,-6.13 0.09,-14.91 -0.04,-29.82 0.07,-44.72 -5.83,-0.05 -11.66,-0.01 -17.49,-0.02 6.32,-21.56 12.4,-43.18 18.74,-64.72 -0.75,0.01 -2.24,0.03 -2.98,0.04 -3.49,11.95 -7.07,23.87 -10.61,35.81 -0.64,2.97 -3.32,5.68 -6.55,5.17 -3.75,-0.34 -5.96,-4.7 -4.68,-8.07 3.83,-13.16 7.95,-26.25 11.88,-39.38 z"
             inkscape:connector-curvature="0"
             style="fill:#d9105a;fill-opacity:1" />
        </g>
        <g
           style="fill:#d9105a;fill-opacity:1"
           id="woman2"
           transform="matrix(0.71979704,0,0,0.71979704,205.00883,78.540721)">
          <path
             id="path10"
             d="m 205.37,86.62 c 7.1,-2.38 15.48,2.21 17.28,9.47 2.22,7.07 -2.52,15.23 -9.68,16.99 -6.89,2.07 -14.8,-2.32 -16.77,-9.21 -2.41,-7 2.04,-15.33 9.17,-17.25 z"
             inkscape:connector-curvature="0"
             style="fill:#d9105a;fill-opacity:1" />
          <path
             id="path14"
             d="m 182.74,129.89 c 2.14,-6.97 8.8,-12.69 16.25,-12.76 6.67,-0.08 13.35,-0.04 20.02,-0.01 7.73,-0.08 14.6,5.85 16.89,13.02 3.76,12.27 7.47,24.56 11.22,36.84 1.13,3.17 1.7,7.47 -1.49,9.66 -3.12,2.47 -7.85,0.3 -8.72,-3.38 -3.74,-12.19 -7.31,-24.43 -10.97,-36.65 -0.8,-0.01 -2.4,-0.03 -3.2,-0.04 6.4,21.54 12.51,43.17 18.9,64.72 -5.85,0.02 -11.69,-0.02 -17.53,0.03 0.11,15.22 -0.01,30.44 0.07,45.66 0.06,2.46 -0.21,5.34 -2.44,6.86 -2.56,0.3 -5.18,0.32 -7.75,0.04 -2.32,-0.82 -2.88,-3.7 -2.8,-5.89 0.01,-15.69 0.02,-31.39 0,-47.09 -1.28,0 -2.56,0 -3.84,0 -0.06,16.03 0.06,32.05 -0.04,48.07 0.15,2.03 -1.19,3.61 -2.38,5.08 -2.7,-0.08 -5.4,-0.07 -8.09,0.02 -1.01,-1.27 -2.35,-2.49 -2.39,-4.23 -0.44,-16.13 0.32,-32.41 -0.37,-48.47 -5.74,-0.22 -11.48,0.01 -17.22,-0.08 6.3,-21.59 12.45,-43.23 18.73,-64.83 -0.72,0.06 -2.14,0.19 -2.85,0.25 -3.49,10.69 -6.46,21.56 -9.72,32.32 -0.88,2.59 -1.22,5.69 -3.52,7.47 -2.55,2.12 -6.83,1.13 -8.34,-1.78 -1.56,-2.62 -0.3,-5.66 0.45,-8.31 3.77,-12.16 7.4,-24.35 11.13,-36.52 z"
             inkscape:connector-curvature="0"
             style="fill:#d9105a;fill-opacity:1" />
        </g>
        <g
           style="fill:#d9105a;fill-opacity:1"
           id="woman3"
           transform="matrix(0.71979704,0,0,0.71979704,321.50946,77.471657)">
          <path
             id="path8-7"
             d="m 126.41,86.5 c 7.69,-2.35 16.46,3.52 17.22,11.53 1.18,7.55 -5.05,15.13 -12.67,15.5 -7.2,0.71 -14.2,-5.21 -14.72,-12.41 -0.79,-6.5 3.77,-13.12 10.17,-14.62 z"
             inkscape:connector-curvature="0"
             style="fill:#d9105a;fill-opacity:1" />
          <path
             id="path12-4"
             d="m 103.23,130.15 c 2.09,-7.24 9.02,-13.11 16.71,-13.03 5.02,-0.09 10.04,0.03 15.06,-0.04 3.58,0.05 7.35,-0.28 10.71,1.23 5.43,2.31 9.61,7.26 11.14,12.95 3.79,12.64 7.71,25.24 11.49,37.89 1.2,3.19 -0.28,7.32 -3.72,8.29 -3.02,1.04 -6.29,-1.09 -7.09,-4.06 -3.87,-12.18 -7.13,-24.58 -11.14,-36.71 -0.77,-0.04 -2.3,-0.14 -3.07,-0.18 6.36,21.58 12.52,43.23 18.9,64.81 -5.84,0 -11.68,0 -17.52,-0.01 -0.04,15.91 0.05,31.82 -0.04,47.72 0.17,2.05 -1.16,3.65 -2.44,5.06 -2.66,-0.09 -5.33,0.07 -7.97,-0.2 -1.95,-1.22 -2.61,-3.63 -2.51,-5.81 -0.01,-15.72 0.03,-31.44 -0.01,-47.15 -1.29,-0.01 -2.57,-0.01 -3.85,0 -0.04,16.04 0.05,32.09 -0.04,48.14 0.02,2.15 -1.23,5.13 -3.78,4.94 -2.73,-0.24 -6.68,1.19 -8.25,-1.82 -1.1,-1.84 -0.9,-4.08 -0.96,-6.13 0.09,-14.91 -0.04,-29.82 0.07,-44.72 -5.83,-0.05 -11.66,-0.01 -17.49,-0.02 6.32,-21.56 12.4,-43.18 18.74,-64.72 -0.75,0.01 -2.24,0.03 -2.98,0.04 -3.49,11.95 -7.07,23.87 -10.61,35.81 -0.64,2.97 -3.32,5.68 -6.55,5.17 -3.75,-0.34 -5.96,-4.7 -4.68,-8.07 3.83,-13.16 7.95,-26.25 11.88,-39.38 z"
             inkscape:connector-curvature="0"
             style="fill:#d9105a;fill-opacity:1" />
        </g>
        <g
           style="fill:#d9105a;fill-opacity:1"
           id="woman4"
           transform="matrix(0.71979704,0,0,0.71979704,321.50946,77.471657)">
          <path
             id="path10-9"
             d="m 205.37,86.62 c 7.1,-2.38 15.48,2.21 17.28,9.47 2.22,7.07 -2.52,15.23 -9.68,16.99 -6.89,2.07 -14.8,-2.32 -16.77,-9.21 -2.41,-7 2.04,-15.33 9.17,-17.25 z"
             inkscape:connector-curvature="0"
             style="fill:#d9105a;fill-opacity:1" />
          <path
             id="path14-4"
             d="m 182.74,129.89 c 2.14,-6.97 8.8,-12.69 16.25,-12.76 6.67,-0.08 13.35,-0.04 20.02,-0.01 7.73,-0.08 14.6,5.85 16.89,13.02 3.76,12.27 7.47,24.56 11.22,36.84 1.13,3.17 1.7,7.47 -1.49,9.66 -3.12,2.47 -7.85,0.3 -8.72,-3.38 -3.74,-12.19 -7.31,-24.43 -10.97,-36.65 -0.8,-0.01 -2.4,-0.03 -3.2,-0.04 6.4,21.54 12.51,43.17 18.9,64.72 -5.85,0.02 -11.69,-0.02 -17.53,0.03 0.11,15.22 -0.01,30.44 0.07,45.66 0.06,2.46 -0.21,5.34 -2.44,6.86 -2.56,0.3 -5.18,0.32 -7.75,0.04 -2.32,-0.82 -2.88,-3.7 -2.8,-5.89 0.01,-15.69 0.02,-31.39 0,-47.09 -1.28,0 -2.56,0 -3.84,0 -0.06,16.03 0.06,32.05 -0.04,48.07 0.15,2.03 -1.19,3.61 -2.38,5.08 -2.7,-0.08 -5.4,-0.07 -8.09,0.02 -1.01,-1.27 -2.35,-2.49 -2.39,-4.23 -0.44,-16.13 0.32,-32.41 -0.37,-48.47 -5.74,-0.22 -11.48,0.01 -17.22,-0.08 6.3,-21.59 12.45,-43.23 18.73,-64.83 -0.72,0.06 -2.14,0.19 -2.85,0.25 -3.49,10.69 -6.46,21.56 -9.72,32.32 -0.88,2.59 -1.22,5.69 -3.52,7.47 -2.55,2.12 -6.83,1.13 -8.34,-1.78 -1.56,-2.62 -0.3,-5.66 0.45,-8.31 3.77,-12.16 7.4,-24.35 11.13,-36.52 z"
             inkscape:connector-curvature="0"
             style="fill:#d9105a;fill-opacity:1" />
        </g>
      </g>
    </g>
    <g
       id="circle"
       transform="translate(186.48477,4.7405662)">
      <path
         sodipodi:type="arc"
         style="fill:none;stroke:#d9105a;stroke-width:6.97751951;stroke-miterlimit:4;stroke-opacity:1;stroke-dasharray:none;stroke-dashoffset:0"
         id="path2999"
         sodipodi:cx="108.06973"
         sodipodi:cy="249.31226"
         sodipodi:rx="246.69713"
         sodipodi:ry="246.69713"
         d="m 354.76686,249.31226 a 246.69713,246.69713 0 1 1 -493.39426,0 246.69713,246.69713 0 1 1 493.39426,0 z"
         transform="matrix(0.80257747,0,0,-0.80257747,118.85815,401.66238)" />
    </g>
  </g>
</svg>
