<svg xmlns="http://www.w3.org/2000/svg" width="511.984" height="511.984" viewBox="0 0 409.58711 409.58711"><g fill="#d9105a"><path d="M166.245 106.723c6.35-2.282 13.953 3.004 13.61 9.85.024 11.884.024 23.768-.012 35.652.213 5.58-4.966 10.583-10.512 10.346-5.486.143-10.547-4.823-10.37-10.334-.035-11.86-.023-23.72 0-35.58-.165-4.458 3.004-8.726 7.285-9.933zM235.998 106.818c6.42-2.46 14.012 2.85 13.87 9.732.19 11.493.048 23 .072 34.492.378 5.57-3.903 11.14-9.614 11.482-5.853.733-11.564-4.41-11.422-10.31-.07-11.86-.06-23.72 0-35.582-.095-4.35 2.932-8.537 7.094-9.814z"/><path d="M123.487 130.775c10.122-.012 20.244-.012 30.366-.012.14 7.958-.107 15.928.082 23.886.142 6.668 7.154 10.617 13.102 11.197 6.716.745 15.325-2.152 17.217-9.342.485-8.56.023-17.157.2-25.73 13.575-.012 27.15-.012 40.725 0 .058 7.958-.06 15.916.022 23.874-.26 5.308 4.364 9.53 9.224 10.7 7.544 2.39 18.694-1.608 18.66-10.7.082-7.96-.037-15.917.023-23.875 10.995-.012 22.004 0 33-.012.048 36.538.013 73.076.013 109.614-20.362 21.036-40.7 42.096-61.17 63.026-33.83-.107-67.67-.012-101.502-.06.05-57.515-.034-115.04.037-172.568m7.556 45.737c.024 39.743.024 79.497 0 119.24 31.36-.024 62.73.07 94.1-.047.06-18.577.06-37.153 0-55.73 17.796-.06 35.592.012 53.377-.035.106-21.143 0-42.285.06-63.428H131.042m101.727 71.055c.036 11.978 0 23.956.024 35.935 11.86-12.038 23.744-24.063 35.757-35.935-11.93-.012-23.85 0-35.78 0z"/><path d="M178.02 208.66c7.815-4.635 15.1-10.11 22.218-15.738 4.67-.048 9.34-.012 14.024-.024-.048 27.08-.024 54.157-.012 81.223h-15.3c.022-21.035-.013-42.082.022-63.118-4.623 3.334-9.578 6.16-14.65 8.762-2.07-3.725-4.163-7.426-6.303-11.104z"/></g><path d="M402.787 204.794a197.994 197.994 0 1 1-395.987 0 197.994 197.994 0 1 1 395.987 0z" fill="none" stroke="#d9105a" stroke-width="5.6004032399999994"/></svg>