<svg xmlns="http://www.w3.org/2000/svg" width="511.984" height="511.984" viewBox="0 0 409.58709 409.58708"><path d="M203.693 96.808h2.2c12.64.237 25.21 4.008 35.795 10.945 11.902 7.746 21.307 19.296 26.352 32.578 2.827 7.357 4.283 15.208 4.474 23.08v2.235c-.27 16.668-6.895 33.153-18.403 45.24-10.682 10.81-20.015 22.93-27.985 35.863-10.492 17.18-18.55 36.247-20.79 56.39-.414 3.2-.325 6.446-.79 9.64.14-1.717.16-3.444.003-5.158-.825-13.057-4.288-25.844-9.312-37.885-5.845-13.925-13.687-26.948-22.737-39.015-5.122-6.802-10.624-13.333-16.617-19.385-11.665-12.03-18.446-28.54-18.81-45.275v-2.67c.183-8.56 1.918-17.096 5.236-24.99 5.264-12.672 14.533-23.608 26.092-30.98 10.48-6.73 22.852-10.38 35.29-10.612m-2.86 40.975c-6.103.87-11.86 3.927-16.007 8.49-4.24 4.596-6.79 10.704-7.065 16.95-.44 7.23 2.27 14.56 7.22 19.83 4.26 4.588 10.16 7.632 16.38 8.385 5.884.753 12.004-.483 17.117-3.496 5.405-3.15 9.654-8.228 11.775-14.11 2.404-6.557 2.13-14.05-.762-20.406-2.548-5.676-7.123-10.408-12.706-13.15-4.9-2.438-10.543-3.302-15.952-2.493z" fill="#d9105a"/><path d="M402.787 204.794C402.787 95.444 314.142 6.8 204.794 6.8 95.444 6.8 6.8 95.445 6.8 204.794c0 109.348 88.645 197.993 197.994 197.993 109.348 0 197.993-88.645 197.993-197.993z" fill="none" stroke="#d9105a" stroke-width="5.6004032399999994"/></svg>