<svg xmlns="http://www.w3.org/2000/svg" width="511.984" height="511.984" viewBox="0 0 409.58711 409.58711"><g fill="#d9105a"><path d="M95.48 131.803c6.78-2.072 14.51 3.102 15.18 10.163 1.04 6.655-4.452 13.336-11.17 13.662-6.345.626-12.516-4.592-12.974-10.94-.696-5.728 3.323-11.563 8.964-12.885zM75.048 170.278c1.843-6.382 7.95-11.556 14.73-11.485 4.424-.08 8.85.026 13.274-.036 3.156.044 6.48-.246 9.44 1.085 4.787 2.036 8.47 6.4 9.82 11.414 3.34 11.142 6.796 22.248 10.128 33.398 1.057 2.812-.247 6.453-3.28 7.308-2.66.916-5.544-.96-6.25-3.58-3.41-10.735-6.284-21.665-9.818-32.357-.68-.035-2.028-.123-2.706-.16 5.606 19.023 11.035 38.106 16.66 57.128-5.15 0-10.296 0-15.444-.01-.035 14.025.044 28.05-.035 42.064.15 1.807-1.023 3.217-2.15 4.46-2.346-.08-4.7.062-7.026-.176-1.718-1.075-2.3-3.2-2.212-5.12-.008-13.857.027-27.713-.008-41.56-1.137-.01-2.266-.01-3.394 0-.035 14.138.044 28.285-.035 42.432.018 1.895-1.083 4.522-3.33 4.354-2.407-.21-5.89 1.05-7.273-1.604-.97-1.622-.793-3.596-.846-5.403.08-13.143-.034-26.286.063-39.42-5.14-.043-10.278-.008-15.417-.017 5.57-19.004 10.93-38.06 16.518-57.047l-2.626.035c-3.077 10.534-6.232 21.04-9.353 31.566-.564 2.617-2.926 5.006-5.773 4.557-3.305-.3-5.253-4.143-4.125-7.114 3.376-11.6 7.007-23.14 10.47-34.712zM165.08 131.908c6.258-2.097 13.644 1.948 15.23 8.348 1.958 6.232-2.22 13.424-8.53 14.976-6.075 1.824-13.047-2.045-14.783-8.12-2.125-6.17 1.798-13.51 8.083-15.204zM145.132 170.05c1.887-6.145 7.757-11.187 14.324-11.25 5.88-.07 11.767-.034 17.647-.007 6.813-.07 12.87 5.156 14.887 11.476 3.314 10.814 6.585 21.647 9.89 32.472.996 2.794 1.498 6.584-1.313 8.514-2.75 2.178-6.92.265-7.687-2.98-3.296-10.744-6.443-21.533-9.67-32.304-.704-.01-2.115-.026-2.82-.035 5.642 18.986 11.027 38.052 16.66 57.047-5.157.018-10.304-.017-15.452.027.097 13.416-.01 26.832.062 40.248.052 2.168-.186 4.706-2.15 6.046-2.258.265-4.567.282-6.832.036-2.045-.723-2.54-3.262-2.468-5.192.008-13.83.017-27.67 0-41.508h-3.385c-.053 14.13.053 28.25-.035 42.372.132 1.79-1.05 3.182-2.098 4.477-2.38-.07-4.76-.062-7.13.017-.89-1.12-2.073-2.195-2.108-3.73-.388-14.216.282-28.566-.326-42.722-5.06-.194-10.12.008-15.18-.07 5.555-19.03 10.975-38.106 16.51-57.145-.634.053-1.885.167-2.51.22-3.077 9.423-5.695 19.004-8.57 28.49-.775 2.282-1.074 5.014-3.102 6.583-2.247 1.87-6.02.996-7.35-1.57-1.376-2.308-.265-4.988.396-7.324 3.323-10.72 6.523-21.464 9.81-32.19z"/><g><path d="M238.145 130.494c6.778-2.072 14.508 3.102 15.178 10.163 1.04 6.655-4.45 13.336-11.168 13.662-6.346.625-12.516-4.593-12.975-10.94-.696-5.73 3.323-11.564 8.965-12.886zM217.713 168.97c1.842-6.383 7.95-11.557 14.73-11.487 4.424-.08 8.848.027 13.273-.035 3.156.044 6.48-.247 9.44 1.084 4.787 2.037 8.47 6.4 9.82 11.415 3.34 11.142 6.796 22.248 10.128 33.398 1.057 2.812-.247 6.452-3.28 7.307-2.66.917-5.544-.96-6.25-3.578-3.41-10.736-6.283-21.666-9.818-32.358-.68-.035-2.027-.124-2.706-.16 5.606 19.023 11.036 38.106 16.66 57.128-5.148 0-10.296 0-15.444-.01-.035 14.025.044 28.05-.035 42.064.15 1.807-1.02 3.217-2.15 4.46-2.344-.08-4.698.062-7.025-.176-1.72-1.076-2.3-3.2-2.212-5.122-.01-13.856.026-27.712-.01-41.56-1.136-.01-2.264-.01-3.393 0-.035 14.138.044 28.286-.035 42.433.018 1.895-1.084 4.522-3.332 4.354-2.406-.21-5.888 1.05-7.272-1.604-.968-1.622-.792-3.596-.845-5.403.08-13.143-.035-26.285.062-39.42-5.14-.043-10.278-.007-15.417-.016 5.57-19.004 10.93-38.06 16.52-57.048l-2.628.036c-3.076 10.533-6.232 21.04-9.352 31.564-.564 2.618-2.927 5.007-5.774 4.557-3.305-.3-5.253-4.142-4.125-7.113 3.377-11.6 7.01-23.138 10.473-34.71z"/></g><g><path d="M307.744 130.6c6.258-2.1 13.645 1.947 15.23 8.347 1.958 6.23-2.22 13.424-8.53 14.975-6.074 1.825-13.047-2.045-14.783-8.118-2.123-6.17 1.8-13.512 8.084-15.205zM287.797 168.74c1.886-6.144 7.756-11.186 14.323-11.248 5.88-.07 11.767-.035 17.647-.01 6.813-.07 12.87 5.158 14.887 11.478 3.315 10.815 6.585 21.648 9.89 32.472.996 2.795 1.5 6.585-1.313 8.515-2.75 2.177-6.918.265-7.685-2.98-3.297-10.744-6.444-21.533-9.67-32.304-.705-.01-2.115-.027-2.82-.035 5.64 18.986 11.026 38.052 16.66 57.047-5.158.018-10.305-.018-15.453.026.097 13.417-.01 26.833.062 40.248.053 2.17-.185 4.707-2.15 6.047-2.257.265-4.567.282-6.832.035-2.045-.722-2.54-3.26-2.468-5.19.01-13.83.017-27.67 0-41.51h-3.385c-.054 14.13.052 28.252-.036 42.372.132 1.79-1.05 3.182-2.098 4.478-2.38-.07-4.76-.06-7.13.018-.89-1.12-2.072-2.195-2.108-3.73-.387-14.216.282-28.566-.326-42.722-5.06-.194-10.12.008-15.178-.07 5.553-19.03 10.974-38.106 16.51-57.145-.635.054-1.887.168-2.513.22-3.075 9.424-5.693 19.005-8.567 28.49-.775 2.282-1.075 5.015-3.102 6.584-2.247 1.87-6.02.996-7.35-1.57-1.376-2.308-.265-4.988.396-7.324 3.323-10.718 6.523-21.463 9.81-32.19z"/></g></g><path d="M402.787 204.794a197.994 197.994 0 1 1-395.987 0 197.994 197.994 0 1 1 395.987 0z" fill="none" stroke="#d9105a" stroke-width="5.6004032399999994"/></svg>